<svg viewBox="0 0 64 64" xmlns="http://www.w3.org/2000/svg"><path d="m63 60h-62c-.6 0-1 .5-1 1v2c0 .5.4 1 1 1h62c.5 0 1-.5 1-1v-2c0-.5-.5-1-1-1" fill="#62727a"/><path d="m40 64h-16l4-4h8z" fill="#ed4c5c"/><path d="m51 36h-38c-2.2 0-4 1.8-4 4v20h46v-20c0-2.2-1.8-4-4-4m-11-14h-16c-2.2 0-4 1.8-4 4v10h24v-10c0-2.2-1.8-4-4-4" fill="#e8e8e8"/><path d="m19 44h26v6h-26zm2.1-6.4v1.9h1.9v-1.9h1.1v4.8h-1.1v-2h-1.8v2h-1.2v-4.8zm9.2 2.4c0 1.6-1 2.5-2.4 2.5-1.5 0-2.3-1.1-2.3-2.5 0-1.5.9-2.5 2.4-2.5s2.3 1.1 2.3 2.5m-3.6 0c0 .9.5 1.6 1.2 1.6.8 0 1.2-.7 1.2-1.6s-.4-1.6-1.2-1.6c-.7 0-1.2.7-1.2 1.6m5.8-1.5h-1.3v-.9h3.8v.9h-1.3v3.9h-1.1v-3.9zm6.7 1.9h-1.8v1.1h2v.9h-3.1v-4.8h3v.9h-1.9v1h1.8zm1.7-2.8h1.1v3.9h2v.9h-3.1z" fill="#62727a"/><path d="m34 46.5h-1.5l-.5-1.5-.5 1.5h-1.5l1.2 1-.4 1.5 1.2-.9 1.2.9-.4-1.5zm-5 0h-1.5l-.5-1.5-.5 1.5h-1.5l1.2 1-.4 1.5 1.2-.9 1.2.9-.4-1.5zm10 0h-1.5l-.5-1.5-.5 1.5h-1.5l1.2 1-.4 1.5 1.2-.9 1.2.9-.4-1.5zm5 0h-1.5l-.5-1.5-.5 1.5h-1.5l1.2 1-.4 1.5 1.2-.9 1.2.9-.4-1.5zm-20 0h-1.5l-.5-1.5-.5 1.5h-1.5l1.2 1-.4 1.5 1.2-.9 1.2.9-.4-1.5z" fill="#ffdd7d"/><path d="m21 50h4v10h-4zm18 0h4v10h-4z" fill="#b2c1c0"/><path d="m28 50h8v10h-8z" fill="#42ade2"/><path d="m31 50h2v10h-2z" fill="#e8e8e8"/><path d="m28 50h3v2h-3zm5 0h3v2h-3z" fill="#428bc1"/><path d="m31 50h2v2h-2zm2-49c0-.6-.5-1-1-1-.6 0-1 .4-1 1v9c0 .6.4 1 1 1 .5 0 1-.4 1-1z" fill="#b2c1c0"/><path d="m36.3 12.3-1.6-1.6c-.4-.4-1.2-.7-1.7-.7h-2c-.6 0-1.3.3-1.7.7l-1.6 1.6c-.4.4-.7 1.1-.7 1.7v8h10v-8c0-.6-.3-1.3-.7-1.7" fill="#e8e8e8"/><path d="m16 39h-4c-.6 0-1 .5-1 1v2c0 .5.4 1 1 1h4c.5 0 1-.5 1-1v-2c0-.5-.5-1-1-1m18-15h-4c-.6 0-1 .5-1 1v8c0 .5.4 1 1 1h4c.5 0 1-.5 1-1v-8c0-.5-.5-1-1-1m18 15h-4c-.6 0-1 .5-1 1v2c0 .5.4 1 1 1h4c.5 0 1-.5 1-1v-2c0-.5-.5-1-1-1m-36 7h-4c-.6 0-1 .5-1 1v2c0 .5.4 1 1 1h4c.5 0 1-.5 1-1v-2c0-.5-.5-1-1-1m36 0h-4c-.6 0-1 .5-1 1v2c0 .5.4 1 1 1h4c.5 0 1-.5 1-1v-2c0-.5-.5-1-1-1m-36 7h-4c-.6 0-1 .5-1 1v2c0 .5.4 1 1 1h4c.5 0 1-.5 1-1v-2c0-.5-.5-1-1-1m36 0h-4c-.6 0-1 .5-1 1v2c0 .5.4 1 1 1h4c.5 0 1-.5 1-1v-2c0-.5-.5-1-1-1m-21-38c0-.6-.5-1-1-1-.6 0-1 .4-1 1v4c0 .5.4 1 1 1 .5 0 1-.5 1-1zm4 0c0-.6-.5-1-1-1-.6 0-1 .4-1 1v4c0 .5.4 1 1 1 .5 0 1-.5 1-1zm-12 9c-.6 0-1 .5-1 1v2c0 .5.4 1 1 1h3c.5 0 1-.5 1-1v-2c0-.5-.5-1-1-1zm0 6c-.6 0-1 .5-1 1v2c0 .5.4 1 1 1h3c.5 0 1-.5 1-1v-2c0-.5-.5-1-1-1zm15-6c-.6 0-1 .5-1 1v2c0 .5.4 1 1 1h3c.5 0 1-.5 1-1v-2c0-.5-.5-1-1-1zm0 6c-.6 0-1 .5-1 1v2c0 .5.4 1 1 1h3c.5 0 1-.5 1-1v-2c0-.5-.5-1-1-1z" fill="#42ade2"/><path d="m33 1.4v5.1c2.7 1.5 3.3-1.5 6 0v-5.1c-2.7-1.5-3.3 1.6-6 0" fill="#ed4c5c"/><path d="m10 39.5h-1.2s-1.4 7.4-.2 20.5h3.1c-.1 0-1.7-8.4-1.7-20.5" fill="#dbb471"/><g fill="#83bf4f"><path d="m10 38.3s-4.3-8.5-10-1.7c0 0 4.3-1.9 9.3 4z"/><path d="m8.2 38.7 2.2 1.2c5.3-6 9.7-2.1 9.7-2.1-5.3-6.9-11.9.9-11.9.9"/><path d="m9.2 38.7s-7.1.2-6 9c0 0 .1-6.2 7.2-6.9z"/><path d="m9.2 38.3v2.5c7.8 1.7 6.6 7.4 6.6 7.4 3.4-8-6.6-9.9-6.6-9.9"/></g><path d="m8.2 57.2s1.5 2.2 3.4 0zm-.3-3.4s1.5 2.2 3.4 0zm-.2-3.4s1.2 2.2 2.9 0zm0-3.4s1.2 2.2 2.9 0zm.2-3.4s1 2.2 2.4 0z" fill="#89664c"/><path d="m54 39.5h1.2s1.4 7.4.2 20.5h-3.1c.1 0 1.7-8.4 1.7-20.5" fill="#dbb471"/><g fill="#83bf4f"><path d="m54 38.3s4.3-8.5 10-1.7c0 0-4.3-1.9-9.3 4z"/><path d="m55.8 38.7-2.2 1.2c-5.3-6-9.7-2.1-9.7-2.1 5.3-6.9 11.9.9 11.9.9"/><path d="m54.8 38.7s7.1.2 6 9c0 0-.1-6.2-7.2-6.9z"/><path d="m54.8 38.3v2.5c-7.8 1.7-6.6 7.4-6.6 7.4-3.4-8 6.6-9.9 6.6-9.9"/></g><path d="m55.8 57.2s-1.5 2.2-3.4 0zm.3-3.4s-1.5 2.2-3.4 0zm.2-3.4s-1.2 2.2-2.9 0zm0-3.4s-1.2 2.2-2.9 0zm-.2-3.4s-1 2.2-2.4 0z" fill="#89664c"/></svg>